<svg xmlns="http://www.w3.org/2000/svg" viewBox="0 0 800 800" width="100%" height="100%">
  <defs>
    <style>
      /* Anthropic / Claude 风格配色：温暖珊瑚 + 纸质米白 + 暖灰描边 */
      .coral-fill { fill: #d97757; }
      .coral-deep-fill { fill: #c75d3d; }
      .paper-fill { fill: #faf9f7; }
      .ink-fill { fill: #2f2d27; }
      .scroll-outline {
        fill: #ffffff;
        stroke: #5c584c;
        stroke-width: 6;
        stroke-linejoin: round;
        stroke-linecap: round;
      }
      .list-line {
        stroke: #c75d3d;
        stroke-width: 5;
        stroke-linecap: round;
      }
      .checkmark {
        fill: none;
        stroke: #d97757;
        stroke-width: 6;
        stroke-linecap: round;
        stroke-linejoin: round;
      }
    </style>
  </defs>

  <!-- 兔子尾巴/后半部分 (位于卷轴后方) -->
  <circle cx="540" cy="530" r="35" class="coral-deep-fill" />

  <!-- 兔子身体与头部 -->
  <path d="M 330 600
           C 330 550, 300 520, 290 480
           C 270 420, 220 400, 220 350
           C 220 310, 240 280, 290 270
           C 340 260, 370 290, 380 340
           C 390 400, 390 450, 420 500
           L 420 600 Z" class="coral-fill" />

  <!-- 兔子嘴巴缺口与眼睛 -->
  <path d="M 225 340 L 235 345 L 220 355 Z" class="paper-fill" />
  <circle cx="280" cy="310" r="11" class="ink-fill" />

  <!-- 兔子双耳（内耳用更深的珊瑚色衬托层次） -->
  <path d="M 320 280 C 330 180, 370 150, 380 160 C 390 170, 370 230, 340 290 Z" class="coral-fill" />
  <path d="M 350 290 C 380 220, 440 180, 450 200 C 460 220, 400 280, 370 310 Z" class="coral-deep-fill" />

  <!-- 卷轴轮廓 -->
  <path d="M 400 270
           Q 480 260 570 270
           Q 590 275 580 290
           Q 570 305 560 290
           Q 530 450 490 580
           Q 480 600 500 605
           Q 520 610 520 585
           L 320 600
           Q 360 420, 400 270 Z" class="scroll-outline" />

  <!-- 卷轴内的横线 -->
  <line x1="450" y1="320" x2="540" y2="320" class="list-line" />
  <line x1="420" y1="350" x2="530" y2="350" class="list-line" />
  <line x1="410" y1="380" x2="520" y2="380" class="list-line" />
  <line x1="400" y1="410" x2="510" y2="410" class="list-line" />
  <line x1="390" y1="440" x2="500" y2="440" class="list-line" />
  <line x1="380" y1="470" x2="490" y2="470" class="list-line" />
  <line x1="370" y1="500" x2="480" y2="500" class="list-line" />
  <line x1="360" y1="530" x2="470" y2="530" class="list-line" />
  <line x1="350" y1="560" x2="460" y2="560" class="list-line" />

  <!-- 卷轴内的打勾符号 -->
  <path d="M 420 325 L 430 335 L 450 310" class="checkmark" />
  <path d="M 450 565 L 460 580 L 485 545" class="checkmark" />

</svg>
